<svg width="400px" height="400px" viewBox="0 1 11 11" fill="none" xmlns="http://www.w3.org/2000/svg" version="1.1" xmlns:xlink="http://www.w3.org/1999/xlink" transform="scale(-1 1)"><path d="M9.421 1.633a0.2 0.2 0 0 0 -0.377 0l-0.215 0.609a0.2 0.2 0 0 1 -0.122 0.121l-0.609 0.215a0.2 0.2 0 0 0 0 0.377l0.609 0.215a0.2 0.2 0 0 1 0.122 0.122l0.215 0.609a0.2 0.2 0 0 0 0.378 0l0.215 -0.609a0.2 0.2 0 0 1 0.121 -0.122l0.609 -0.215a0.2 0.2 0 0 0 0 -0.378l-0.609 -0.215a0.2 0.2 0 0 1 -0.121 -0.121z" fill="#000"/><path d="M7.074 3.62a0.138 0.138 0 0 1 0.26 0l0.119 0.336c0.013 0.04 0.045 0.07 0.084 0.084l0.335 0.119a0.138 0.138 0 0 1 0 0.26l-0.335 0.119a0.14 0.14 0 0 0 -0.084 0.084l-0.119 0.335a0.138 0.138 0 0 1 -0.261 0l-0.119 -0.335a0.14 0.14 0 0 0 -0.084 -0.084l-0.335 -0.119a0.138 0.138 0 0 1 0 -0.26l0.335 -0.119a0.14 0.14 0 0 0 0.084 -0.084z" fill="#000"/><path d="M8.385 5.111a0.092 0.092 0 0 1 0.173 0l0.08 0.224c0.009 0.026 0.03 0.047 0.056 0.057l0.224 0.079a0.092 0.092 0 0 1 0 0.173l-0.224 0.08a0.095 0.095 0 0 0 -0.056 0.056l-0.08 0.224a0.092 0.092 0 0 1 -0.173 0l-0.079 -0.224a0.095 0.095 0 0 0 -0.056 -0.056l-0.224 -0.08a0.092 0.092 0 0 1 0 -0.173l0.224 -0.079a0.095 0.095 0 0 0 0.056 -0.057z" fill="#000"/><path d="M5.567 2.325a0.38 0.38 0 0 1 -0.034 0.426 2.95 2.95 0 0 0 -0.65 1.845c0 1.657 1.385 3.018 3.116 3.018 0.476 0 0.925 -0.103 1.327 -0.286a0.38 0.38 0 0 1 0.511 0.486C9.213 9.39 7.644 10.5 5.814 10.5 3.442 10.5 1.5 8.628 1.5 6.296c0 -2.121 1.608 -3.862 3.683 -4.159a0.38 0.38 0 0 1 0.384 0.188" fill="#000"/></svg>